<svg width="22" height="22" viewBox="0 0 22 22" fill="none" xmlns="http://www.w3.org/2000/svg">
<path d="M11 8.25C12.7719 8.25 14.2083 6.81358 14.2083 5.04167C14.2083 3.26976 12.7719 1.83334 11 1.83334C9.22809 1.83334 7.79167 3.26976 7.79167 5.04167C7.79167 6.81358 9.22809 8.25 11 8.25Z" stroke="#025046" stroke-width="2" stroke-linecap="round" stroke-linejoin="round"/>
<path d="M1.83334 18.7917C1.83334 14.7414 5.52705 11.4583 10.0833 11.4583" stroke="#025046" stroke-width="2" stroke-linecap="round" stroke-linejoin="round"/>
<path d="M15.5833 19.7083C17.8615 19.7083 19.7083 17.8615 19.7083 15.5833C19.7083 13.3052 17.8615 11.4583 15.5833 11.4583C13.3052 11.4583 11.4583 13.3052 11.4583 15.5833C11.4583 17.8615 13.3052 19.7083 15.5833 19.7083Z" stroke="#025046" stroke-width="2"/>
<path d="M15.125 14.2083V16.0417H16.9583" stroke="#025046" stroke-width="2" stroke-linecap="round" stroke-linejoin="round"/>
</svg>
