<svg width="18" height="20" viewBox="0 0 18 20" fill="none" xmlns="http://www.w3.org/2000/svg">
<path d="M9 10C11.8406 10 14.1429 7.76172 14.1429 5C14.1429 2.23828 11.8406 0 9 0C6.15938 0 3.85714 2.23828 3.85714 5C3.85714 7.76172 6.15938 10 9 10ZM4.17857 16.5625C4.17857 17.082 4.60848 17.5 5.14286 17.5C5.67723 17.5 6.10714 17.082 6.10714 16.5625C6.10714 16.043 5.67723 15.625 5.14286 15.625C4.60848 15.625 4.17857 16.043 4.17857 16.5625ZM12.8571 11.2734V13.1875C14.3237 13.4766 15.4286 14.7422 15.4286 16.25V17.8789C15.4286 18.1758 15.2116 18.4336 14.9103 18.4922L13.6165 18.7422C13.4437 18.7773 13.275 18.668 13.2388 18.4961L13.1143 17.8828C13.0781 17.7148 13.1906 17.5469 13.3674 17.5156L14.1429 17.3633V16.25C14.1429 13.7969 10.2857 13.707 10.2857 16.3242V17.3672L11.0612 17.5195C11.2339 17.5547 11.3464 17.7188 11.3143 17.8867L11.1897 18.5C11.1536 18.668 10.9848 18.7773 10.8121 18.7461L9.55848 18.582C9.24107 18.5391 9.00402 18.2773 9.00402 17.9609V16.25C9.00402 14.7422 10.1089 13.4805 11.5754 13.1875V11.4219C11.4871 11.4492 11.3987 11.4648 11.3103 11.4961C10.5871 11.7422 9.81161 11.8789 9.00402 11.8789C8.19643 11.8789 7.42098 11.7422 6.69777 11.4961C6.40045 11.3945 6.09911 11.332 5.78973 11.293V14.4805C6.71786 14.75 7.39688 15.5781 7.39688 16.5664C7.39688 17.7734 6.38839 18.7539 5.14688 18.7539C3.90536 18.7539 2.89687 17.7734 2.89687 16.5664C2.89687 15.5781 3.57589 14.75 4.50402 14.4805V11.3398C1.94866 11.7578 0 13.8984 0 16.5V18.25C0 19.2148 0.807589 20 1.8 20H16.2C17.1924 20 18 19.2148 18 18.25V16.5C18 13.6875 15.7179 11.4102 12.8571 11.2734Z" fill="#DA9461"/>
</svg>
