<svg width="60" height="62" viewBox="0 0 60 62" fill="none" xmlns="http://www.w3.org/2000/svg">
<g clip-path="url(#clip0_3_133)">
<path d="M49.1845 47.0225C49.2347 44.9913 48.9422 42.9986 48.4324 41.0357C47.8925 38.9577 47.0882 36.9899 45.8141 35.2353C45.4673 34.7764 45.0976 34.3351 44.7063 33.9131C44.8475 33.8839 44.9356 33.8628 45.0253 33.8463C46.6121 33.5633 48.1436 33.0353 49.5645 32.2814C51.6109 31.1925 53.3886 29.7887 54.7088 27.8652C55.0084 27.4286 55.2622 26.9689 55.3559 26.4362C55.3895 26.243 55.3362 26.1235 55.1387 26.0331C53.6218 25.3309 52.111 24.6102 50.5941 23.908C50.378 23.8085 50.3654 23.7247 50.4628 23.5219C51.1767 22.0332 51.8746 20.5372 52.5848 19.0473C52.6743 18.8593 52.6649 18.7531 52.4546 18.6799C52.1372 18.5696 51.8304 18.424 51.5082 18.3314C49.2131 17.6526 46.8124 17.4055 44.4297 17.6028C42.3368 17.7813 40.3653 18.3354 38.6474 19.5945C38.6161 19.6179 38.5792 19.6395 38.5233 19.5813C38.7796 18.6897 38.8951 17.7634 38.8656 16.8355C38.7632 13.4281 37.5944 10.376 35.6558 7.59272C35.3284 7.10059 34.9169 6.66905 34.44 6.3177C34.2332 6.17119 34.1016 6.19023 33.9254 6.37941C32.8286 7.55967 31.7156 8.72646 30.6108 9.89999C30.3359 10.1925 30.335 10.1984 30.0306 9.91367C28.8463 8.81023 27.6642 7.70382 26.4846 6.59444C26.3274 6.44689 26.2304 6.42933 26.0951 6.6003C25.9534 6.78448 25.7907 6.95459 25.6558 7.14305C24.1815 9.2152 23.1432 11.5631 22.6027 14.0467C22.2298 15.7147 22.1381 17.3965 22.4548 19.0868C22.5393 19.5402 22.6625 19.9849 22.7705 20.4419C22.6524 20.4254 22.5406 20.3785 22.4462 20.3058C21.7029 19.8988 20.9134 19.582 20.0947 19.3622C16.9247 18.5072 13.7445 18.5318 10.5655 19.2693C9.97205 19.4082 9.38691 19.5968 8.87468 19.9391C8.65776 20.0863 8.57444 20.2274 8.73491 20.5056C9.5364 21.909 10.2988 23.3343 11.0991 24.7383C11.2608 25.0221 11.1868 25.1193 10.9303 25.2525C9.50122 26.0297 8.07902 26.8173 6.64715 27.5905C6.45647 27.6922 6.41264 27.785 6.53819 27.963C6.70921 28.2029 6.85812 28.46 7.04049 28.6904C8.63817 30.6919 10.5756 32.4005 12.7645 33.7384C14.4829 34.8007 16.3131 35.5691 18.3315 35.8367C18.4053 35.8467 18.5236 35.8151 18.5406 35.9136C18.5576 36.012 18.4437 36.0584 18.3821 36.1208C15.5369 39.0258 14.0967 42.5606 13.7018 46.556C13.6323 47.2589 13.6309 47.974 13.8854 48.6578C13.968 48.882 14.083 48.9636 14.3441 48.9105C15.9521 48.5964 17.5665 48.3098 19.1742 47.9904C19.4667 47.9323 19.5315 48.0169 19.5792 48.2755C19.8749 49.8793 20.1987 51.4821 20.4991 53.0874C20.542 53.3169 20.6282 53.3829 20.84 53.3014C21.1423 53.1822 21.4568 53.0885 21.7487 52.9475C24.1899 51.7738 26.3489 50.2073 28.3036 48.3492C29.5374 47.1741 30.6177 45.8782 31.3553 44.3268C31.3815 44.2721 31.3737 44.1767 31.5034 44.1887C31.8226 45.0539 32.2413 45.8799 32.7511 46.6501C34.6305 49.4384 37.2246 51.2834 40.3982 52.3499C41.1163 52.5857 41.8511 52.7617 42.6192 52.7107C42.8703 52.6911 42.9889 52.5993 43.0192 52.3316C43.2097 50.7119 43.4265 49.0967 43.6186 47.4755C43.6508 47.2053 43.7421 47.1526 44.0032 47.1934C45.4665 47.4044 46.9363 47.5614 48.407 47.7094C49.1574 47.7751 49.1685 47.7788 49.1845 47.0225ZM45.4247 44.3855C44.1095 44.2211 42.7911 44.0883 41.4765 43.9251C41.2473 43.8969 41.1757 43.9397 41.1491 44.1678C40.9996 45.4651 40.8344 46.7604 40.676 48.0568C40.6221 48.4934 40.5774 48.542 40.1202 48.5317C39.2173 48.5109 38.3701 48.2266 37.5577 47.8833C35.1521 46.8668 33.1987 45.3118 31.8435 43.059C31.5808 42.6237 31.3571 42.1663 31.175 41.6922C31.1404 41.6002 31.0963 41.5122 31.0337 41.3712C30.902 41.6219 30.8027 41.8272 30.6902 42.026C29.7341 43.7261 28.3537 45.047 26.8435 46.2467C25.6243 47.2143 24.3319 48.0761 22.9172 48.7345C21.9708 49.1781 21.9683 49.1732 21.7737 48.1722C21.5581 47.0572 21.3381 45.9427 21.1323 44.8257C21.0935 44.6088 21.0341 44.5455 20.7974 44.5933C19.5094 44.8502 18.2178 45.0866 16.9275 45.3316C16.4959 45.4124 16.4234 45.3702 16.3194 44.939C16.167 44.2979 16.1886 43.6466 16.2714 43.0031C16.6811 39.7955 17.8895 36.9574 20.2031 34.6383C20.2278 34.6223 20.2475 34.5999 20.2602 34.5735C20.2729 34.547 20.278 34.5176 20.275 34.4884C19.7343 34.4182 19.1991 34.3107 18.6732 34.1666C16.7375 33.6066 15.0574 32.5844 13.5063 31.3319C12.4356 30.4822 11.4705 29.5084 10.6318 28.4313C10.1004 27.7392 10.1044 27.7365 10.8446 27.3323C11.8699 26.7737 12.8917 26.2068 13.9236 25.6596C14.1514 25.5384 14.2068 25.4545 14.0709 25.2108C13.4168 24.0723 12.7923 22.9219 12.1551 21.7756C11.9618 21.4253 11.9719 21.3664 12.3248 21.1587C12.8487 20.8499 13.4281 20.6879 14.0184 20.5714C16.793 20.0227 19.5449 20.0443 22.2561 20.9631C22.7847 21.1516 23.2953 21.3876 23.7813 21.668C23.8255 21.5335 23.7517 21.445 23.7342 21.3514C23.7045 21.3417 23.7013 21.3233 23.7193 21.2996L23.716 21.2189L23.7193 21.2996L23.716 21.2189C23.6399 21.1939 23.6479 21.1383 23.6654 21.0787C23.2355 19.4513 23.3162 17.8221 23.6826 16.205C24.1307 14.2139 24.9627 12.3295 26.1327 10.656C26.6622 9.89481 26.6678 9.89971 27.3333 10.5214L29.8051 12.8326C30.0952 13.1044 30.0977 13.1063 30.3781 12.8094C31.2752 11.8586 32.1751 10.9118 33.0638 9.95206C33.2345 9.76719 33.3681 9.76411 33.5554 9.90115C34.1425 10.3328 34.5491 10.9195 34.9302 11.5183C35.8066 12.892 36.4535 14.3972 36.8456 15.9752L36.8634 16.0525C36.8678 16.0733 36.8723 16.0942 36.8777 16.1154L36.8907 16.1758L36.8942 16.1902L36.9132 16.27L36.9696 16.5335L36.9862 16.6175L37.0333 16.8841L37.0484 16.9666L37.0746 17.1529C37.0819 17.1565 37.0882 17.1617 37.0932 17.1682C37.0982 17.1746 37.1017 17.182 37.1034 17.1899C37.1052 17.1978 37.1051 17.206 37.1033 17.2139C37.1014 17.2217 37.0978 17.2291 37.0927 17.2354L37.1356 17.5557L37.1723 17.9322C37.1947 17.9542 37.2084 17.9835 37.211 18.0147C37.2136 18.0459 37.2049 18.0769 37.1864 18.1022L37.1893 18.3471C37.1933 18.3499 37.1967 18.3536 37.199 18.358C37.2013 18.3623 37.2026 18.3671 37.2027 18.372C37.2028 18.377 37.2017 18.3818 37.1995 18.3862C37.1974 18.3906 37.1942 18.3945 37.1902 18.3974C37.1951 18.4155 37.1976 18.4342 37.1977 18.4529C37.2173 18.4766 37.2283 18.5061 37.2287 18.5367C37.2291 18.5673 37.219 18.5971 37.2 18.6211L37.1981 18.843L37.1983 18.9237L37.1854 19.3012L37.1754 19.4194L37.1854 19.3012L37.1754 19.4194L37.166 19.5511C37.1815 19.5843 37.1873 19.6211 37.1827 19.6574C37.178 19.6936 37.1632 19.7277 37.1399 19.7559C37.1374 19.7918 37.1336 19.8283 37.1308 19.8652C37.1479 19.8964 37.1543 19.9324 37.1489 19.9675C37.1435 20.0026 37.1266 20.035 37.1009 20.0595L37.0595 20.2858C37.0769 20.3287 37.0815 20.3757 37.0724 20.4209C37.0634 20.4662 37.0412 20.5078 37.0087 20.5407L36.9557 20.7489C36.9633 20.8198 36.9696 20.8912 36.9778 20.9603C38.2998 19.9928 39.8038 19.4944 41.4229 19.3186C43.7751 19.061 46.0811 19.2883 48.3221 20.0833C48.7437 20.233 48.7423 20.2499 48.5502 20.6594C48.0147 21.7957 47.4776 22.9307 46.9388 24.0645C46.7714 24.4178 46.7686 24.4169 47.1302 24.5867C48.3017 25.1387 49.4737 25.6893 50.6462 26.2383C51.0022 26.4062 51.0206 26.4439 50.8997 26.8217C50.6275 27.6755 50.0802 28.3564 49.4699 28.9849C47.5243 31.0001 45.1544 32.2636 42.3925 32.7859C42.3025 32.8033 42.2147 32.8234 42.1041 32.8473C42.1797 33.0365 42.3353 33.1417 42.4501 33.2743C43.5833 34.5815 44.3361 36.0924 44.8613 37.7205C45.5104 39.7353 45.8629 41.7956 45.7969 43.9156C45.7957 43.9663 45.7898 44.0154 45.7911 44.0679C45.7882 44.3211 45.7042 44.4201 45.421 44.3843L45.4247 44.3855Z" fill="#FFFDFD"/>
<path d="M37.1592 19.5499L37.1331 19.7547C37.1564 19.7265 37.1712 19.6924 37.1759 19.6561C37.1805 19.6199 37.1747 19.5831 37.1592 19.5499Z" fill="white"/>
<path d="M26.3571 28.9162C26.6777 28.9602 26.9441 29.0068 27.222 29.0338C27.373 29.0497 27.5102 29.0263 27.5364 28.8308C27.5992 28.3903 27.7572 27.9689 27.9995 27.5956C28.0954 27.4413 28.1955 27.271 28.0548 27.0921C27.7483 26.7015 27.4902 26.2789 27.2123 25.8702C26.8305 25.311 26.4494 24.75 26.047 24.2065C25.9097 24.0205 25.8548 23.7432 25.5705 23.6856C25.6384 23.5038 25.4395 23.3956 25.4254 23.2164L25.6488 23.3061C25.7388 23.7113 26.0805 23.948 26.3189 24.2457C26.9481 25.0311 27.6243 25.7799 28.2701 26.5523C28.5914 26.9355 28.9193 26.9013 29.1585 26.4357C29.1667 26.4396 29.1757 26.4414 29.1847 26.441C29.1938 26.4406 29.2026 26.4379 29.2103 26.4333C29.2181 26.4287 29.2245 26.4222 29.2291 26.4144C29.2337 26.4067 29.2362 26.3979 29.2366 26.3889L29.1591 26.4339C29.0368 26.4583 28.925 26.5191 28.8386 26.6084C28.6601 26.7733 28.5532 26.7045 28.4271 26.5406C28.2413 26.2989 28.0358 26.0732 27.8343 25.8417L25.6498 23.3125C25.5043 23.0606 25.2864 22.8757 25.0719 22.6869C25.0151 22.6785 24.9551 22.6639 24.911 22.7198C25.0915 23.0674 25.3109 23.3935 25.5653 23.6921C25.638 23.8119 25.7051 23.936 25.7846 24.0509C26.4859 25.0727 27.19 26.0926 27.8966 27.1106C27.9832 27.235 28.0425 27.3331 27.9324 27.4868C27.665 27.8581 27.4875 28.2861 27.4139 28.7375C27.3887 28.8925 27.335 28.9463 27.1774 28.9191C26.5938 28.8183 26.0074 28.7258 25.4296 28.6321C25.4243 28.5417 25.4145 28.4515 25.4001 28.3621C25.3542 28.153 25.2419 27.9638 25.0798 27.8227C24.9176 27.6815 24.7143 27.5959 24.4999 27.5786C24.2905 27.5564 24.0798 27.6016 23.8986 27.7075C23.7175 27.8134 23.5756 27.9744 23.4936 28.1669C23.4082 28.357 23.3846 28.5692 23.4261 28.7738C23.4676 28.9784 23.5722 29.1654 23.7252 29.3086C23.8765 29.4526 24.0705 29.5441 24.2781 29.5691C24.4857 29.5942 24.6955 29.5516 24.8761 29.4476C24.9739 29.4166 25.0633 29.3639 25.1377 29.2936C25.212 29.2233 25.2694 29.1371 25.3055 29.0415C25.3788 28.8839 25.4692 28.8809 25.6173 28.9152C26.0488 29.0161 26.4656 29.1743 26.9082 29.2288C26.7845 29.0545 26.523 29.1279 26.3571 28.9162ZM24.9989 29.2083C24.9482 29.2688 24.9007 29.3319 24.8566 29.3974C24.5501 29.3917 24.2482 29.5253 23.9536 29.305C23.6589 29.0848 23.5202 28.8248 23.5577 28.4789C23.5981 28.1022 23.8814 27.7685 24.1996 27.7229C24.3737 27.6958 24.5521 27.713 24.7181 27.7729C24.8841 27.8327 25.0324 27.9333 25.1491 28.0653C25.2367 28.1584 25.2649 28.3228 25.2828 28.4593C25.2864 28.4985 25.3011 28.536 25.3252 28.5672C25.3494 28.5985 25.382 28.6223 25.4192 28.6358C25.3025 28.8426 25.1614 29.0348 24.9989 29.2083Z" fill="white"/>
<path d="M30.7443 37.1807C30.733 36.3543 30.5993 35.5376 30.5478 34.7143C30.5072 34.0711 30.4391 33.4301 30.4046 32.7869C30.3891 32.4899 30.1951 32.417 29.968 32.3823C29.825 32.3608 29.6855 32.3599 29.5801 32.2426C29.4255 32.0715 29.3213 32.123 29.2481 32.3143C29.0462 32.3032 28.9614 32.455 28.9034 32.5972C28.7922 32.867 28.5202 32.9818 28.3881 33.262C28.3255 33.1394 28.378 33.0984 28.3944 33.0456C28.4765 32.7735 28.8122 32.6183 28.7486 32.2799C28.5262 32.6285 28.2855 32.967 28.087 33.3275C27.9192 33.6317 27.7863 33.8269 27.3561 33.6908C26.9259 33.5546 26.4445 33.8876 26.2866 34.337C26.1355 34.7661 26.3534 35.3858 26.7304 35.5933C27.0497 35.7696 27.6632 35.6668 27.9469 35.3884C28.1057 35.2366 28.2089 35.0362 28.24 34.819C28.2711 34.6018 28.2284 34.3801 28.1186 34.1892C28.0181 34.0164 28.0378 33.9126 28.155 33.7653C28.5284 33.2887 28.8832 32.7998 29.2478 32.3153C29.4789 32.3927 29.7143 32.4567 29.9528 32.5069C30.195 32.5456 30.2544 32.6682 30.2732 32.8928C30.4544 35.1355 30.6432 37.3782 30.8394 39.621C30.9292 39.9363 30.8212 40.2745 30.9609 40.5847C31.0341 40.1647 30.9927 39.7428 30.9952 39.322C30.9948 39.3045 30.9758 39.2871 30.9661 39.2696C30.9939 38.7969 31.0367 38.3251 30.9851 37.8468L30.8781 38.0913C30.8816 37.7709 30.7494 37.4815 30.7443 37.1807ZM28.0585 34.9575C27.9088 35.4137 27.4645 35.6302 26.9885 35.4739C26.464 35.3088 26.26 34.8345 26.4489 34.378C26.7011 33.7667 27.0923 33.7022 27.797 33.9132C28.023 33.9761 28.172 34.6089 28.0585 34.9575Z" fill="white"/>
<path d="M25.339 31.9322C26.0592 31.5735 26.774 31.2029 27.5163 30.8892C27.5616 30.874 27.6032 30.8495 27.6385 30.8173C27.6737 30.7852 27.7019 30.7461 27.7211 30.7025C27.7403 30.6589 27.7502 30.6118 27.7502 30.5642C27.7502 30.5165 27.7402 30.4693 27.7209 30.4256C27.6088 30.1462 27.5384 29.8521 27.5121 29.5527C27.499 29.3013 27.32 29.1987 27.0887 29.2769C27.2894 29.3295 27.3809 29.4453 27.3851 29.6641C27.3946 29.9384 27.4578 30.2085 27.5712 30.4591C27.6476 30.6333 27.5956 30.6979 27.4337 30.7744C26.6477 31.1522 25.8701 31.5451 25.09 31.9331C25.1739 32.0219 25.2566 31.9735 25.339 31.9322Z" fill="white"/>
<path d="M28.8264 31.8584C28.5943 31.7291 28.4294 31.5239 28.21 31.3814C28.1591 31.3437 28.0992 31.3202 28.0362 31.3132C27.9733 31.3061 27.9097 31.3159 27.852 31.3414C27.2875 31.5297 26.7582 31.8081 26.1812 31.9627C26.0604 31.9955 25.9208 32.0262 25.8922 32.1853C25.8565 32.1662 25.817 32.1555 25.7765 32.1539C25.7361 32.1523 25.6958 32.1598 25.6589 32.176C25.1714 32.3426 24.6776 32.4847 24.204 32.6905C23.9547 32.7986 23.6891 32.8686 23.4311 32.9564C23.4874 32.785 23.6154 32.777 23.7141 32.7206C24.0878 32.5217 24.5391 32.4402 24.811 32.0691C24.9437 32.1127 25.0713 32.1434 25.078 31.9353C24.9756 31.9461 24.8806 31.9932 24.8104 32.0679L21.5939 33.621C21.3477 33.729 20.8638 33.9662 20.8638 33.9662C20.7118 34.0387 20.569 34.1289 20.4384 34.2348C20.62 34.178 20.7974 34.1087 20.9691 34.0273L21.5599 33.7935C21.6066 33.7701 21.6581 33.7574 21.7051 33.733C21.7772 33.7107 21.7746 33.6844 21.8176 33.7036C22.1221 33.5933 22.4281 33.4845 22.7317 33.3708L25.8957 32.1874C26.3988 32.0106 26.9138 31.8602 27.4003 31.6464C27.8509 31.4483 28.2407 31.3537 28.5648 31.8378C28.6427 31.9543 28.8518 31.9719 28.8263 32.1717C29.0278 32.0715 28.9462 31.9253 28.8264 31.8584ZM23.2207 33.0618C23.2073 33.0493 23.1832 33.0383 23.1825 33.0248C23.1818 33.0113 23.2039 32.9971 23.2155 32.9836C23.2301 32.9955 23.254 33.0074 23.2547 33.0209C23.2546 33.0242 23.2536 33.0274 23.2517 33.0301C23.2423 33.0416 23.2319 33.0522 23.2207 33.0618Z" fill="#FFFAFA"/>
<path d="M35.3595 23.1248C35.3792 23.1267 35.3982 23.1329 35.4152 23.1431C35.4857 23.0254 35.5568 22.9089 35.6273 22.7912C35.6252 22.7761 35.6246 22.7609 35.6258 22.7458C35.6246 22.7609 35.6252 22.7761 35.6273 22.7912L35.7064 22.663C35.7232 22.6338 35.7409 22.6049 35.758 22.5779L35.8362 22.4525C35.8887 22.3676 35.9422 22.2831 35.9962 22.1937L36.1013 22.024C36.1394 21.961 36.1773 21.8989 36.2164 21.8362L36.5675 21.2145C36.3001 21.3308 36.1904 21.5867 36.0483 21.8127C35.9229 21.9756 35.7965 22.1444 35.6698 22.3111L35.5747 22.4381C35.4551 22.563 35.3532 22.7037 35.2719 22.8562C35.5122 22.8789 35.3798 23.0192 35.3595 23.1248Z" fill="white"/>
<path d="M41.3011 32.1059L40.579 31.9413C40.5693 31.9708 40.5527 32.0215 40.5442 32.0473C40.556 32.0114 40.5675 31.9763 40.579 31.9413L39.6893 31.7115L39.4592 31.6482L38.8617 31.4959L38.6833 31.4506L37.8489 31.2338L37.7333 31.207L37.0188 31.0225L36.8426 30.9769L36.0063 30.7594L35.7766 30.6983L35.3021 30.5782L34.3478 30.3353L33.9412 30.2212L33.8325 30.1733L33.834 30.1687C33.8394 30.0867 33.845 30.0038 33.8515 29.9213L33.8705 29.804C33.9258 29.5141 33.9274 29.2165 33.8752 28.9256C33.8578 28.8731 33.862 28.816 33.8868 28.7668C33.9117 28.7176 33.9551 28.6802 34.0078 28.6629C34.7031 28.3297 35.3965 27.9919 36.088 27.6493C36.1335 27.6191 36.1887 27.6066 36.243 27.6141C36.2974 27.6216 36.3472 27.6486 36.383 27.6901C36.4946 27.7954 36.6294 27.8732 36.7767 27.9171C36.9239 27.961 37.0793 27.9698 37.2303 27.9427C37.3637 27.9219 37.4915 27.8744 37.6058 27.8031C37.7201 27.7319 37.8187 27.6383 37.8956 27.5281C37.9725 27.4179 38.0261 27.2933 38.0533 27.1617C38.0804 27.0301 38.0806 26.8944 38.0537 26.7625C37.9955 26.5032 37.8384 26.276 37.6154 26.1291C37.3924 25.9821 37.1211 25.9269 36.8587 25.9751C36.7264 26.0024 36.601 26.0561 36.4903 26.1329C36.3795 26.2096 36.2856 26.308 36.2142 26.4219C36.1428 26.5359 36.0953 26.6631 36.0747 26.796C36.0541 26.9289 36.0608 27.0646 36.0943 27.1951C36.1544 27.419 36.1147 27.4897 35.9059 27.5589C35.396 27.7284 34.8945 27.9251 34.3893 28.1083C34.199 28.1775 33.9934 28.3182 33.8167 28.2868C33.622 28.2535 33.6404 27.9533 33.5193 27.7961C33.5066 27.7802 33.4961 27.7627 33.4881 27.744C33.3849 27.4794 33.0297 27.3026 33.0619 27.0416C33.0942 26.7807 33.3314 26.534 33.4838 26.2828L33.5234 26.2152C33.5381 26.1925 33.5518 26.1694 33.5653 26.1473L33.649 26.0145L33.8816 25.6346C33.8877 25.6162 33.9018 25.6014 33.9112 25.5851L34.0163 25.4155L34.0346 25.3817L34.1424 25.2129L34.1994 25.105C34.219 25.0798 34.2398 25.054 34.2603 25.0291L34.3316 24.8933C34.3488 24.8662 34.3671 24.8385 34.386 24.809L34.4687 24.6667L34.6825 24.3286L34.7665 24.1857L34.9455 23.9035L35.0319 23.7594C35.052 23.7262 35.0731 23.6933 35.0932 23.6601L35.1607 23.5455C35.1915 23.4954 35.2233 23.4456 35.2541 23.3955L35.416 23.1311C35.399 23.121 35.38 23.1147 35.3603 23.1129C35.3806 23.0072 35.5133 22.866 35.273 22.8433L35.2664 22.8636C35.2772 22.9079 35.277 22.9542 35.2657 22.9984C35.2544 23.0425 35.2325 23.0832 35.2017 23.1169C34.8143 23.6206 34.4331 24.1303 34.0414 24.6316C33.5606 25.2475 33.0699 25.856 32.5872 26.4713C32.4535 26.6407 32.3357 26.6613 32.1245 26.5562C31.8191 26.3918 31.4877 26.2806 31.1449 26.2274C30.7876 26.1856 30.5224 26.1353 30.5652 25.6982C30.5328 25.7065 30.5009 25.7168 30.4698 25.7291C30.5158 26.0617 30.3925 26.2274 30.0356 26.2501C29.8328 26.2576 29.6358 26.3178 29.4642 26.4248C29.4276 26.4441 29.3855 26.4504 29.3447 26.4428C29.3039 26.4351 29.2668 26.414 29.2396 26.3827C29.2392 26.3917 29.2367 26.4005 29.2321 26.4083C29.2275 26.416 29.2211 26.4225 29.2133 26.4271C29.2056 26.4318 29.1968 26.4344 29.1877 26.4349C29.1787 26.4353 29.1697 26.4335 29.1615 26.4296C28.9235 26.8914 28.5957 26.9257 28.2731 26.5462C27.6273 25.7737 26.9511 25.025 26.3219 24.2396C26.0835 23.9419 25.7418 23.7051 25.6518 23.2999L25.4284 23.2102C25.4426 23.3894 25.6423 23.4979 25.5735 23.6795C25.8578 23.7371 25.9127 24.0144 26.05 24.2003C26.4542 24.7414 26.8335 25.3049 27.2153 25.864C27.4923 26.2725 27.7513 26.6954 28.0578 27.086C28.1985 27.2648 28.0984 27.4351 28.0025 27.5894C27.7565 27.9648 27.5961 28.3894 27.5324 28.8335C27.508 29.0236 27.3696 29.0506 27.218 29.0365C26.9453 29.0062 26.6746 28.9602 26.353 28.9189C26.5189 29.1306 26.7799 29.0591 26.9032 29.2313L27.0847 29.2796C27.316 29.2014 27.495 29.3041 27.5081 29.5554C27.5344 29.8548 27.6048 30.149 27.7169 30.4284C27.7362 30.4721 27.7462 30.5193 27.7462 30.5669C27.7462 30.6146 27.7363 30.6617 27.7171 30.7053C27.6979 30.7488 27.6697 30.7879 27.6345 30.8201C27.5992 30.8522 27.5576 30.8767 27.5123 30.892C26.7699 31.2056 26.0542 31.576 25.335 31.9349C25.2526 31.9763 25.1699 32.0246 25.086 31.9358L25.0786 31.9395C25.0719 32.1476 24.9446 32.116 24.8116 32.0734C24.5397 32.4445 24.0911 32.5269 23.7147 32.7248C23.6114 32.7797 23.488 32.7892 23.4317 32.9606C23.6897 32.8728 23.9553 32.8028 24.2046 32.6948C24.6782 32.489 25.172 32.3469 25.6595 32.1803C25.6964 32.1641 25.7367 32.1565 25.7771 32.1581C25.8175 32.1597 25.8571 32.1705 25.8928 32.1895C25.9214 32.0305 26.0582 31.9989 26.1818 31.967C26.7588 31.8124 27.2881 31.534 27.8526 31.3457C27.9103 31.3202 27.9739 31.3104 28.0368 31.3174C28.0997 31.3245 28.1597 31.348 28.2106 31.3857C28.4303 31.5272 28.5949 31.7334 28.827 31.8627C28.9468 31.9296 29.0283 32.0758 28.8259 32.1788C28.8037 32.2153 28.7807 32.2507 28.7575 32.287C28.8184 32.6244 28.4827 32.7796 28.4033 33.0526C28.3861 33.1052 28.3308 33.1452 28.397 33.269C28.5294 32.9879 28.8015 32.8731 28.9124 32.6042C28.9704 32.462 29.0561 32.3105 29.2571 32.3214C29.3284 32.1294 29.4327 32.0779 29.589 32.2497C29.6944 32.367 29.8339 32.3678 29.977 32.3893C30.204 32.424 30.398 32.4969 30.4136 32.794C30.448 33.4372 30.5162 34.0781 30.5568 34.7213C30.6082 35.5446 30.7383 36.3601 30.7533 37.1878C30.7575 37.4882 30.8905 37.7779 30.8846 38.1026L30.9917 37.8581C31.0362 37.7561 31.06 37.6463 31.0618 37.535C31.0888 36.0563 31.1182 34.5779 31.1498 33.1C31.1598 32.6 31.1564 32.601 31.6433 32.4454C31.752 32.418 31.857 32.3778 31.9561 32.3256C32.1574 32.2008 32.2798 32.2787 32.4133 32.442C32.9204 33.0515 33.4349 33.655 33.9569 34.2524C34.0144 34.3076 34.0532 34.3793 34.068 34.4573C34.0827 34.5353 34.0726 34.6159 34.0391 34.6877C33.9751 34.9148 33.994 35.1574 34.0925 35.3727C34.191 35.5879 34.3627 35.7619 34.5773 35.8639C34.7918 35.9659 35.0354 35.9892 35.265 35.9299C35.4946 35.8706 35.6953 35.7323 35.8317 35.5396C35.9557 35.3467 36.0091 35.117 35.9831 34.889C35.9571 34.6609 35.8532 34.4484 35.6888 34.2868C35.5243 34.1252 35.3093 34.0245 35.0797 34.0014C34.8501 33.9782 34.6198 34.0342 34.4273 34.1598C34.3167 34.2307 34.2393 34.338 34.1202 34.156C33.6555 33.4644 33.1778 32.7808 32.7039 32.0954C32.6469 32.0124 32.6087 31.9315 32.7132 31.8606C33.0551 31.6299 33.1959 31.1198 33.5449 31.018C33.8939 30.9162 34.3393 31.1032 34.7421 31.1661L40.5413 32.0688C40.5413 32.0688 41.0178 32.1609 41.2573 32.2018C41.4113 32.2398 41.5697 32.2575 41.7283 32.2544C41.5899 32.1939 41.4471 32.1443 41.3011 32.1059ZM29.832 31.8007C29.3485 31.6419 28.9225 31.3443 28.608 30.9455C28.2936 30.5467 28.1047 30.0646 28.0653 29.5601C28.0259 29.0557 28.1378 28.5516 28.3868 28.1116C28.6358 27.6716 29.0107 27.3154 29.4641 27.0881C29.9176 26.8608 30.4291 26.7726 30.9342 26.8346C31.4392 26.8967 31.915 27.1062 32.3015 27.4366C32.6879 27.7671 32.9676 28.2037 33.1051 28.6912C33.2427 29.1787 33.2319 29.6952 33.0743 30.1754C32.9697 30.4944 32.8028 30.7894 32.5833 31.0437C32.3637 31.298 32.0957 31.5066 31.7946 31.6575C31.4935 31.8085 31.1652 31.8988 30.8284 31.9234C30.4917 31.9479 30.1531 31.9062 29.832 31.8007Z" fill="white"/>
<path d="M21.6979 33.7235L21.8142 33.7045C21.7711 33.6853 21.7291 33.6725 21.6979 33.7235Z" fill="white"/>
<path d="M29.4588 26.4353C29.6304 26.3283 29.8274 26.268 30.0301 26.2605C30.387 26.2379 30.5103 26.0722 30.4643 25.7396C30.4954 25.7272 30.5273 25.7169 30.5598 25.7087C30.5188 26.1464 30.7821 26.1961 31.1395 26.2379C31.4823 26.2911 31.8136 26.4023 32.1191 26.5667C32.3302 26.6717 32.448 26.6512 32.5817 26.4818C33.0644 25.8665 33.5551 25.2579 34.0359 24.642C34.4276 24.1408 34.8088 23.631 35.1962 23.1274C35.227 23.0937 35.249 23.053 35.2603 23.0088C35.2715 22.9647 35.2718 22.9184 35.2609 22.874C35.1745 22.9712 35.0807 23.0629 35.0017 23.1656C34.187 24.2258 33.3745 25.2861 32.5645 26.3465C32.4436 26.5048 32.3555 26.5698 32.1473 26.4463C31.7929 26.2405 31.3955 26.1194 30.9867 26.0928C30.794 26.0785 30.7023 26.0198 30.69 25.8065C30.6549 25.1999 30.5975 24.5951 30.5404 23.9894C30.5237 23.9224 30.5327 23.8517 30.5657 23.7911C30.5987 23.7305 30.6533 23.6845 30.7188 23.6621C31.2129 23.4252 31.4201 22.9287 31.2528 22.4491C31.1788 22.2221 31.0258 22.0284 30.8213 21.9031C30.6168 21.7778 30.3743 21.7291 30.1376 21.7658C29.9008 21.8026 29.6855 21.9223 29.5303 22.1034C29.3751 22.2845 29.2903 22.515 29.2913 22.7534C29.2897 23.2684 29.6327 23.6607 30.1805 23.7457C30.3322 23.7689 30.3871 23.8084 30.382 23.968C30.3608 24.596 30.349 25.2236 30.3465 25.851C30.3468 26.0379 30.2673 26.0924 30.0983 26.1124C29.7937 26.1443 29.4993 26.2384 29.2335 26.3889C29.2602 26.421 29.2971 26.4431 29.3381 26.4515C29.379 26.4599 29.4216 26.4542 29.4588 26.4353Z" fill="white"/>
<path d="M27.7982 33.9095C27.0935 33.6985 26.7022 33.763 26.4501 34.3743C26.2599 34.8345 26.464 35.3088 26.9897 35.4702C27.4657 35.6265 27.9127 35.4109 28.0597 34.9539C28.1719 34.6089 28.023 33.9761 27.7982 33.9095Z" fill="white"/>
<path d="M25.2828 28.4593C25.265 28.3228 25.2367 28.1584 25.1491 28.0653C25.0324 27.9333 24.8841 27.8327 24.7181 27.7729C24.5521 27.713 24.3738 27.6958 24.1996 27.7229C23.8808 27.7703 23.5982 28.1022 23.5577 28.4788C23.5202 28.8248 23.6655 29.0899 23.9536 29.305C24.2417 29.5201 24.5548 29.3932 24.8566 29.3973C24.9007 29.3319 24.9482 29.2688 24.9989 29.2083C25.1621 29.0337 25.3036 28.8403 25.4204 28.6321C25.3835 28.619 25.351 28.5959 25.3267 28.5653C25.3023 28.5347 25.2871 28.498 25.2828 28.4593Z" fill="white"/>
<path d="M23.2155 32.9836C23.2039 32.9971 23.1814 33.0122 23.1824 33.0248C23.1834 33.0374 23.2073 33.0493 23.2206 33.0618C23.2319 33.0522 23.2422 33.0416 23.2516 33.0301C23.2535 33.0274 23.2546 33.0242 23.2546 33.0209C23.2539 33.0074 23.2301 32.9955 23.2155 32.9836Z" fill="white"/>
</g>
<defs>
<clipPath id="clip0_3_133">
<rect width="47" height="49" fill="white" transform="translate(15.2858) rotate(18.1771)"/>
</clipPath>
</defs>
</svg>
