<svg width="16" height="22" viewBox="0 0 16 22" fill="none" xmlns="http://www.w3.org/2000/svg">
<path d="M8.00001 3.2C7.31045 3.2 6.64913 3.47393 6.16154 3.96152C5.67394 4.44912 5.40001 5.11044 5.40001 5.8C5.40001 6.48956 5.67394 7.15088 6.16154 7.63848C6.64913 8.12607 7.31045 8.4 8.00001 8.4C8.68958 8.4 9.35089 8.12607 9.83849 7.63848C10.3261 7.15088 10.6 6.48956 10.6 5.8C10.6 5.11044 10.3261 4.44912 9.83849 3.96152C9.35089 3.47393 8.68958 3.2 8.00001 3.2ZM3.45001 16.85C3.27762 16.85 3.11229 16.9185 2.99039 17.0404C2.86849 17.1623 2.80001 17.3276 2.80001 17.5C2.80001 17.6724 2.86849 17.8377 2.99039 17.9596C3.11229 18.0815 3.27762 18.15 3.45001 18.15H12.55C12.7224 18.15 12.8877 18.0815 13.0096 17.9596C13.1315 17.8377 13.2 17.6724 13.2 17.5C13.2 17.3276 13.1315 17.1623 13.0096 17.0404C12.8877 16.9185 12.7224 16.85 12.55 16.85H3.45001ZM0.200012 3.2C0.200012 2.51044 0.47394 1.84912 0.961535 1.36152C1.44913 0.873926 2.11045 0.599998 2.80001 0.599998H13.2C13.8896 0.599998 14.5509 0.873926 15.0385 1.36152C15.5261 1.84912 15.8 2.51044 15.8 3.2V18.8C15.8 19.4896 15.5261 20.1509 15.0385 20.6385C14.5509 21.1261 13.8896 21.4 13.2 21.4H2.80001C2.11045 21.4 1.44913 21.1261 0.961535 20.6385C0.47394 20.1509 0.200012 19.4896 0.200012 18.8V3.2ZM13.2 1.9H2.80001C2.45523 1.9 2.12457 2.03696 1.88077 2.28076C1.63698 2.52456 1.50001 2.85522 1.50001 3.2V13.6H4.10001V11C4.10001 10.6552 4.23698 10.3246 4.48077 10.0808C4.72457 9.83696 5.05523 9.7 5.40001 9.7H10.6C10.9448 9.7 11.2755 9.83696 11.5193 10.0808C11.763 10.3246 11.9 10.6552 11.9 11V13.6H14.5V3.2C14.5 2.85522 14.363 2.52456 14.1193 2.28076C13.8755 2.03696 13.5448 1.9 13.2 1.9ZM1.50001 14.9V18.8C1.50001 19.1448 1.63698 19.4754 1.88077 19.7192C2.12457 19.963 2.45523 20.1 2.80001 20.1H13.2C13.5448 20.1 13.8755 19.963 14.1193 19.7192C14.363 19.4754 14.5 19.1448 14.5 18.8V14.9H1.50001Z" fill="#FAF9FA"/>
</svg>
